<svg width="601" height="611" viewBox="0 0 601 611" fill="none" xmlns="http://www.w3.org/2000/svg">
<path d="M33.2097 50.5574H567.087V498.111L300.148 610L33.2097 498.111V50.5574Z" fill="#404040"/>
<path d="M369.341 120.364H446.224V356.514C446.224 383.029 439.891 406.23 427.225 426.116C414.678 446.003 397.1 461.509 374.491 472.636C351.882 483.645 325.544 489.149 295.478 489.149C265.293 489.149 238.896 483.645 216.287 472.636C193.679 461.509 176.1 446.003 163.553 426.116C151.006 406.23 144.732 383.029 144.732 356.514V120.364H221.614V349.945C221.614 363.794 224.633 376.105 230.67 386.876C236.825 397.648 245.466 406.112 256.593 412.267C267.72 418.422 280.681 421.5 295.478 421.5C310.393 421.5 323.354 418.422 334.363 412.267C345.49 406.112 354.072 397.648 360.108 386.876C366.264 376.105 369.341 363.794 369.341 349.945V120.364Z" fill="white"/>
<path d="M0.760742 323.543H600.761L567.427 421.09H34.0941L0.760742 323.543Z" fill="#8B0000"/>
<path d="M109.195 410V340.182H123.956V370.966H124.877L150.002 340.182H167.695L141.786 371.443L168.002 410H150.343L131.218 381.295L123.956 390.159V410H109.195ZM257.695 360.261C257.422 357.511 256.252 355.375 254.184 353.852C252.116 352.33 249.309 351.568 245.763 351.568C243.354 351.568 241.32 351.909 239.661 352.591C238.002 353.25 236.729 354.17 235.843 355.352C234.979 356.534 234.547 357.875 234.547 359.375C234.502 360.625 234.763 361.716 235.331 362.648C235.922 363.58 236.729 364.386 237.752 365.068C238.775 365.727 239.956 366.307 241.297 366.807C242.638 367.284 244.07 367.693 245.593 368.034L251.866 369.534C254.911 370.216 257.706 371.125 260.252 372.261C262.797 373.398 265.002 374.795 266.866 376.455C268.729 378.114 270.172 380.068 271.195 382.318C272.241 384.568 272.775 387.148 272.797 390.057C272.775 394.33 271.684 398.034 269.525 401.17C267.388 404.284 264.297 406.705 260.252 408.432C256.229 410.136 251.377 410.989 245.695 410.989C240.059 410.989 235.15 410.125 230.968 408.398C226.809 406.67 223.559 404.114 221.218 400.727C218.9 397.318 217.684 393.102 217.57 388.08H231.854C232.013 390.42 232.684 392.375 233.866 393.943C235.07 395.489 236.672 396.659 238.672 397.455C240.695 398.227 242.979 398.614 245.525 398.614C248.025 398.614 250.195 398.25 252.036 397.523C253.9 396.795 255.343 395.784 256.366 394.489C257.388 393.193 257.9 391.705 257.9 390.023C257.9 388.455 257.434 387.136 256.502 386.068C255.593 385 254.252 384.091 252.479 383.341C250.729 382.591 248.581 381.909 246.036 381.295L238.434 379.386C232.547 377.955 227.9 375.716 224.491 372.67C221.081 369.625 219.388 365.523 219.411 360.364C219.388 356.136 220.513 352.443 222.786 349.284C225.081 346.125 228.229 343.659 232.229 341.886C236.229 340.114 240.775 339.227 245.866 339.227C251.047 339.227 255.57 340.114 259.434 341.886C263.32 343.659 266.343 346.125 268.502 349.284C270.661 352.443 271.775 356.102 271.843 360.261H257.695ZM324.505 352.352V340.182H381.846V352.352H360.471V410H345.88V352.352H324.505ZM478.851 340.182H493.613V385.523C493.613 390.614 492.397 395.068 489.965 398.886C487.556 402.705 484.181 405.682 479.84 407.818C475.499 409.932 470.442 410.989 464.67 410.989C458.874 410.989 453.806 409.932 449.465 407.818C445.124 405.682 441.749 402.705 439.34 398.886C436.931 395.068 435.726 390.614 435.726 385.523V340.182H450.488V384.261C450.488 386.92 451.067 389.284 452.226 391.352C453.408 393.42 455.067 395.045 457.204 396.227C459.34 397.409 461.829 398 464.67 398C467.533 398 470.022 397.409 472.135 396.227C474.272 395.045 475.92 393.42 477.079 391.352C478.26 389.284 478.851 386.92 478.851 384.261V340.182Z" fill="white"/>
<path d="M33.2097 498.111C99.9444 554.056 233.414 582.028 300.148 610" stroke="#8B0000" stroke-width="2"/>
<path d="M568.108 497.734C501.271 553.475 367.597 581.345 300.761 609.216" stroke="#8B0000" stroke-width="2"/>
</svg>
